<?xml version="1.0" encoding="UTF-8" standalone="no"?>
<!DOCTYPE svg PUBLIC "-//W3C//DTD SVG 1.1//EN"
 "http://www.w3.org/Graphics/SVG/1.1/DTD/svg11.dtd">
<!-- Generated by graphviz version 12.2.1 (0)
 -->
<!-- Pages: 1 -->
<svg width="1334pt" height="839pt"
 viewBox="0.00 0.00 1333.60 839.00" xmlns="http://www.w3.org/2000/svg" xmlns:xlink="http://www.w3.org/1999/xlink">
<g id="graph0" class="graph" transform="scale(1 1) rotate(0) translate(144 695)">
<polygon fill="white" stroke="none" points="-144,144 -144,-695 1189.6,-695 1189.6,144 -144,144"/>
<g id="clust1" class="cluster">
<title>cluster_CRs</title>
<path fill="#e5f5fd" stroke="#aeb6be" d="M623.2,-8C623.2,-8 716,-8 716,-8 722,-8 728,-14 728,-20 728,-20 728,-531 728,-531 728,-537 722,-543 716,-543 716,-543 623.2,-543 623.2,-543 617.2,-543 611.2,-537 611.2,-531 611.2,-531 611.2,-20 611.2,-20 611.2,-14 617.2,-8 623.2,-8"/>
<text text-anchor="middle" x="630.45" y="-527.6" font-family="Sans-Serif" font-size="12.00" fill="#2d3436">CRs</text>
</g>
<g id="clust2" class="cluster">
<title>cluster_Server 1</title>
<path fill="#e5f5fd" stroke="#aeb6be" d="M778,-368C778,-368 1025.6,-368 1025.6,-368 1031.6,-368 1037.6,-374 1037.6,-380 1037.6,-380 1037.6,-531 1037.6,-531 1037.6,-537 1031.6,-543 1025.6,-543 1025.6,-543 778,-543 778,-543 772,-543 766,-537 766,-531 766,-531 766,-380 766,-380 766,-374 772,-368 778,-368"/>
<text text-anchor="middle" x="799.5" y="-527.6" font-family="Sans-Serif" font-size="12.00" fill="#2d3436">Server 1</text>
</g>
<!-- 7a1c35b8dd8a4d618b4523efd856d7bf -->
<g id="node1" class="node">
<title>7a1c35b8dd8a4d618b4523efd856d7bf</title>
<image xlink:href="/nix/store/nj4sksi9sgs86sl0w043wii690ih8kvz-python3-3.13.11-env/lib/python3.13/site-packages/resources/k8s/others/crd.png" width="100.8px" height="100.8px" preserveAspectRatio="xMinYMin meet" x="619.2" y="-134.4"/>
<text text-anchor="middle" x="669.6" y="-19.75" font-family="Sans-Serif" font-size="13.00" fill="#2d3436">Server 1</text>
</g>
<!-- 4661baba22a24d6ca21d3aca02ecafc7 -->
<g id="node10" class="node">
<title>4661baba22a24d6ca21d3aca02ecafc7</title>
<image xlink:href="/nix/store/nj4sksi9sgs86sl0w043wii690ih8kvz-python3-3.13.11-env/lib/python3.13/site-packages/resources/programming/language/go.png" width="100.8px" height="100.8px" preserveAspectRatio="xMinYMin meet" x="774" y="-314.4"/>
<text text-anchor="middle" x="824.4" y="-199.75" font-family="Sans-Serif" font-size="13.00" fill="#2d3436">K8S Operator</text>
</g>
<!-- 7a1c35b8dd8a4d618b4523efd856d7bf&#45;&gt;4661baba22a24d6ca21d3aca02ecafc7 -->
<g id="edge8" class="edge">
<title>7a1c35b8dd8a4d618b4523efd856d7bf&#45;&gt;4661baba22a24d6ca21d3aca02ecafc7</title>
<path fill="none" stroke="#7b8894" d="M719.92,-84C765.18,-84 824.6,-84 824.6,-84 824.6,-84 824.6,-184.18 824.6,-184.18"/>
<polygon fill="#7b8894" stroke="#7b8894" points="821.1,-184.18 824.6,-194.18 828.1,-184.18 821.1,-184.18"/>
</g>
<!-- 5dce2729488a4d70bd977cf2f279b2b1 -->
<g id="node2" class="node">
<title>5dce2729488a4d70bd977cf2f279b2b1</title>
<image xlink:href="/nix/store/nj4sksi9sgs86sl0w043wii690ih8kvz-python3-3.13.11-env/lib/python3.13/site-packages/resources/k8s/others/crd.png" width="100.8px" height="100.8px" preserveAspectRatio="xMinYMin meet" x="619.2" y="-314.4"/>
<text text-anchor="middle" x="669.6" y="-199.75" font-family="Sans-Serif" font-size="13.00" fill="#2d3436">Server 2</text>
</g>
<!-- 5dce2729488a4d70bd977cf2f279b2b1&#45;&gt;4661baba22a24d6ca21d3aca02ecafc7 -->
<g id="edge9" class="edge">
<title>5dce2729488a4d70bd977cf2f279b2b1&#45;&gt;4661baba22a24d6ca21d3aca02ecafc7</title>
<path fill="none" stroke="#7b8894" d="M719.86,-264C719.86,-264 762.61,-264 762.61,-264"/>
<polygon fill="#7b8894" stroke="#7b8894" points="762.61,-267.5 772.61,-264 762.61,-260.5 762.61,-267.5"/>
</g>
<!-- efa490071f8042b4bb7ed7bde574f4f9 -->
<g id="node3" class="node">
<title>efa490071f8042b4bb7ed7bde574f4f9</title>
<image xlink:href="/nix/store/nj4sksi9sgs86sl0w043wii690ih8kvz-python3-3.13.11-env/lib/python3.13/site-packages/resources/k8s/others/crd.png" width="100.8px" height="100.8px" preserveAspectRatio="xMinYMin meet" x="619.2" y="-494.4"/>
<text text-anchor="middle" x="669.6" y="-379.75" font-family="Sans-Serif" font-size="13.00" fill="#2d3436">Server 3</text>
</g>
<!-- efa490071f8042b4bb7ed7bde574f4f9&#45;&gt;4661baba22a24d6ca21d3aca02ecafc7 -->
<g id="edge10" class="edge">
<title>efa490071f8042b4bb7ed7bde574f4f9&#45;&gt;4661baba22a24d6ca21d3aca02ecafc7</title>
<path fill="none" stroke="#7b8894" d="M669.6,-375.79C669.6,-363.23 669.6,-354 669.6,-354 669.6,-354 824.6,-354 824.6,-354 824.6,-354 824.6,-343.73 824.6,-343.73"/>
<polygon fill="#7b8894" stroke="#7b8894" points="828.1,-343.73 824.6,-333.73 821.1,-343.73 828.1,-343.73"/>
</g>
<!-- 6637798016f44982902ef6ab8bb37aed -->
<g id="node4" class="node">
<title>6637798016f44982902ef6ab8bb37aed</title>
<image xlink:href="/nix/store/nj4sksi9sgs86sl0w043wii690ih8kvz-python3-3.13.11-env/lib/python3.13/site-packages/resources/k8s/network/svc.png" width="100.8px" height="100.8px" preserveAspectRatio="xMinYMin meet" x="774" y="-494.4"/>
<text text-anchor="middle" x="824.4" y="-379.75" font-family="Sans-Serif" font-size="13.00" fill="#2d3436">server&#45;svc</text>
</g>
<!-- 79ad50735f3d48979bb2038a94ca7ffd -->
<g id="node5" class="node">
<title>79ad50735f3d48979bb2038a94ca7ffd</title>
<image xlink:href="/nix/store/nj4sksi9sgs86sl0w043wii690ih8kvz-python3-3.13.11-env/lib/python3.13/site-packages/resources/k8s/compute/sts.png" width="100.8px" height="100.8px" preserveAspectRatio="xMinYMin meet" x="928.8" y="-494.4"/>
<text text-anchor="middle" x="979.2" y="-379.75" font-family="Sans-Serif" font-size="13.00" fill="#2d3436">server</text>
</g>
<!-- 6637798016f44982902ef6ab8bb37aed&#45;&gt;79ad50735f3d48979bb2038a94ca7ffd -->
<g id="edge1" class="edge">
<title>6637798016f44982902ef6ab8bb37aed&#45;&gt;79ad50735f3d48979bb2038a94ca7ffd</title>
<path fill="none" stroke="#7b8894" d="M874.66,-444C874.66,-444 917.41,-444 917.41,-444"/>
<polygon fill="#7b8894" stroke="#7b8894" points="917.41,-447.5 927.41,-444 917.41,-440.5 917.41,-447.5"/>
</g>
<!-- 9fd87ed2c3fc4070b2543cb421337a0a -->
<g id="node6" class="node">
<title>9fd87ed2c3fc4070b2543cb421337a0a</title>
<image xlink:href="/nix/store/nj4sksi9sgs86sl0w043wii690ih8kvz-python3-3.13.11-env/lib/python3.13/site-packages/resources/programming/framework/nextjs.png" width="100.8px" height="100.8px" preserveAspectRatio="xMinYMin meet" x="8.52651e-14" y="-314.4"/>
<text text-anchor="middle" x="50.4" y="-199.75" font-family="Sans-Serif" font-size="13.00" fill="#2d3436">UI</text>
</g>
<!-- 2f3f764270be4bde9a9d2bd45ce309a1 -->
<g id="node7" class="node">
<title>2f3f764270be4bde9a9d2bd45ce309a1</title>
<image xlink:href="/nix/store/nj4sksi9sgs86sl0w043wii690ih8kvz-python3-3.13.11-env/lib/python3.13/site-packages/resources/programming/language/go.png" width="100.8px" height="100.8px" preserveAspectRatio="xMinYMin meet" x="154.8" y="-314.4"/>
<text text-anchor="middle" x="205.2" y="-199.75" font-family="Sans-Serif" font-size="13.00" fill="#2d3436">API</text>
</g>
<!-- 9fd87ed2c3fc4070b2543cb421337a0a&#45;&gt;2f3f764270be4bde9a9d2bd45ce309a1 -->
<g id="edge2" class="edge">
<title>9fd87ed2c3fc4070b2543cb421337a0a&#45;&gt;2f3f764270be4bde9a9d2bd45ce309a1</title>
<path fill="none" stroke="#7b8894" d="M100.66,-264C100.66,-264 143.41,-264 143.41,-264"/>
<polygon fill="#7b8894" stroke="#7b8894" points="143.41,-267.5 153.41,-264 143.41,-260.5 143.41,-267.5"/>
</g>
<!-- bb76bfd8fcf247c0870db65a903af08e -->
<g id="node8" class="node">
<title>bb76bfd8fcf247c0870db65a903af08e</title>
<image xlink:href="/nix/store/nj4sksi9sgs86sl0w043wii690ih8kvz-python3-3.13.11-env/lib/python3.13/site-packages/resources/onprem/inmemory/redis.png" width="100.8px" height="100.8px" preserveAspectRatio="xMinYMin meet" x="309.6" y="-314.4"/>
<text text-anchor="middle" x="360" y="-199.75" font-family="Sans-Serif" font-size="13.00" fill="#2d3436">Message broker</text>
</g>
<!-- 2f3f764270be4bde9a9d2bd45ce309a1&#45;&gt;bb76bfd8fcf247c0870db65a903af08e -->
<g id="edge3" class="edge">
<title>2f3f764270be4bde9a9d2bd45ce309a1&#45;&gt;bb76bfd8fcf247c0870db65a903af08e</title>
<path fill="none" stroke="#7b8894" d="M255.46,-264C255.46,-264 298.21,-264 298.21,-264"/>
<polygon fill="#7b8894" stroke="#7b8894" points="298.21,-267.5 308.21,-264 298.21,-260.5 298.21,-267.5"/>
</g>
<!-- 9b4afaf0c4204f9c9fa036874365555a -->
<g id="node9" class="node">
<title>9b4afaf0c4204f9c9fa036874365555a</title>
<image xlink:href="/nix/store/nj4sksi9sgs86sl0w043wii690ih8kvz-python3-3.13.11-env/lib/python3.13/site-packages/resources/programming/language/go.png" width="100.8px" height="100.8px" preserveAspectRatio="xMinYMin meet" x="464.4" y="-314.4"/>
<text text-anchor="middle" x="514.8" y="-199.75" font-family="Sans-Serif" font-size="13.00" fill="#2d3436">Controller/Server</text>
</g>
<!-- bb76bfd8fcf247c0870db65a903af08e&#45;&gt;9b4afaf0c4204f9c9fa036874365555a -->
<g id="edge4" class="edge">
<title>bb76bfd8fcf247c0870db65a903af08e&#45;&gt;9b4afaf0c4204f9c9fa036874365555a</title>
<path fill="none" stroke="#7b8894" d="M410.26,-264C410.26,-264 453.01,-264 453.01,-264"/>
<polygon fill="#7b8894" stroke="#7b8894" points="453.01,-267.5 463.01,-264 453.01,-260.5 453.01,-267.5"/>
</g>
<!-- 9b4afaf0c4204f9c9fa036874365555a&#45;&gt;7a1c35b8dd8a4d618b4523efd856d7bf -->
<g id="edge5" class="edge">
<title>9b4afaf0c4204f9c9fa036874365555a&#45;&gt;7a1c35b8dd8a4d618b4523efd856d7bf</title>
<path fill="none" stroke="#7b8894" d="M514.6,-195.69C514.6,-144.77 514.6,-84 514.6,-84 514.6,-84 607.76,-84 607.76,-84"/>
<polygon fill="#7b8894" stroke="#7b8894" points="607.76,-87.5 617.76,-84 607.76,-80.5 607.76,-87.5"/>
</g>
<!-- 9b4afaf0c4204f9c9fa036874365555a&#45;&gt;5dce2729488a4d70bd977cf2f279b2b1 -->
<g id="edge6" class="edge">
<title>9b4afaf0c4204f9c9fa036874365555a&#45;&gt;5dce2729488a4d70bd977cf2f279b2b1</title>
<path fill="none" stroke="#7b8894" d="M565.06,-264C565.06,-264 607.81,-264 607.81,-264"/>
<polygon fill="#7b8894" stroke="#7b8894" points="607.81,-267.5 617.81,-264 607.81,-260.5 607.81,-267.5"/>
</g>
<!-- 9b4afaf0c4204f9c9fa036874365555a&#45;&gt;efa490071f8042b4bb7ed7bde574f4f9 -->
<g id="edge7" class="edge">
<title>9b4afaf0c4204f9c9fa036874365555a&#45;&gt;efa490071f8042b4bb7ed7bde574f4f9</title>
<path fill="none" stroke="#7b8894" d="M514.6,-332.31C514.6,-383.23 514.6,-444 514.6,-444 514.6,-444 607.76,-444 607.76,-444"/>
<polygon fill="#7b8894" stroke="#7b8894" points="607.76,-447.5 617.76,-444 607.76,-440.5 607.76,-447.5"/>
</g>
<!-- 4661baba22a24d6ca21d3aca02ecafc7&#45;&gt;79ad50735f3d48979bb2038a94ca7ffd -->
<g id="edge11" class="edge">
<title>4661baba22a24d6ca21d3aca02ecafc7&#45;&gt;79ad50735f3d48979bb2038a94ca7ffd</title>
<path fill="none" stroke="#7b8894" d="M874.79,-264C920.11,-264 979.6,-264 979.6,-264 979.6,-264 979.6,-364.18 979.6,-364.18"/>
<polygon fill="#7b8894" stroke="#7b8894" points="976.1,-364.18 979.6,-374.18 983.1,-364.18 976.1,-364.18"/>
</g>
</g>
</svg>
